<svg width="80" height="80" viewBox="0 0 80 80" fill="none" xmlns="http://www.w3.org/2000/svg">
<circle cx="40" cy="40" r="40" fill="#EDEDED"/>
<path d="M62.4636 59.9845V46.2976C62.4636 45.8858 62.13 45.5522 61.7182 45.5522C61.3064 45.5522 60.9727 45.8859 60.9727 46.2976V59.9749H58.9453V57.88V55.0398V52.1994V49.3591C58.9453 48.9473 58.6117 48.6136 58.1999 48.6136H49.1217C48.7099 48.6136 48.3763 48.9473 48.3763 49.3591V52.1994V55.0398V57.88V59.9749H19.7864V40.8545H22.057H29.3652H32.1135H39.4217H41.7666H49.0435H51.6009H58.8777H60.9726V43.8128C60.9726 44.2246 61.3063 44.5582 61.7181 44.5582C62.1299 44.5582 62.4636 44.2246 62.4636 43.8128V40.1089C62.4636 39.6971 62.1299 39.3635 61.7181 39.3635H59.5585C59.2451 37.5426 57.8057 36.103 55.9847 35.7897V34.4407C55.9847 34.0288 55.6511 33.6952 55.2393 33.6952C54.8274 33.6952 54.4938 34.0288 54.4938 34.4407V35.7897C52.673 36.1031 51.2335 37.5426 50.9201 39.3635H49.7243C49.4109 37.5426 47.9714 36.103 46.1505 35.7897V34.4407C46.1505 34.0288 45.8169 33.6952 45.405 33.6952C44.9932 33.6952 44.6596 34.0288 44.6596 34.4407V35.7897C42.8387 36.1031 41.3992 37.5426 41.0858 39.3635H40.1326L39.6646 29.4887C39.6452 29.0776 39.2993 28.7612 38.8846 28.7794C38.4734 28.7988 38.1559 29.1481 38.1753 29.5594L38.64 39.3634H32.8951L33.5938 24.624H37.9415L38.0516 26.9484C38.0711 27.3597 38.4177 27.6792 38.8315 27.6578C39.2427 27.6384 39.5603 27.2891 39.5408 26.8778L39.4006 23.9191C39.4019 23.8938 39.402 23.8683 39.4007 23.8429L39.2664 21.0453C39.2656 21.0312 39.2638 21.0175 39.2623 21.0036L39.1459 18.5412H39.3483C39.7601 18.5412 40.0937 18.2075 40.0937 17.7957C40.0937 17.384 39.76 17.0503 39.3482 17.0503H38.3643H33.1712H32.1873C31.7755 17.0503 31.4419 17.384 31.4419 17.7957C31.4419 18.2075 31.7755 18.5412 32.1873 18.5412H32.3897L32.2731 21.0025C32.2716 21.0167 32.2696 21.0308 32.2689 21.0451L32.1346 23.8427C32.1334 23.8683 32.1335 23.8937 32.1348 23.919L31.4027 39.3633H30.0764L29.3442 23.9183C29.3455 23.8932 29.3456 23.8682 29.3444 23.8429L29.21 21.0453C29.2093 21.0314 29.2074 21.0178 29.2061 21.0041L29.0893 18.5413H29.2916C29.7035 18.5413 30.0371 18.2076 30.0371 17.7958C30.0371 17.3841 29.7035 17.0503 29.2916 17.0503H28.3078H23.1148H22.1309C21.719 17.0503 21.3854 17.384 21.3854 17.7957C21.3854 18.2075 21.719 18.5412 22.1309 18.5412H22.3333L22.2164 21.0023C22.215 21.0166 22.2129 21.0307 22.2123 21.0453L22.0779 23.8429C22.0767 23.8684 22.0768 23.8939 22.0781 23.9192L21.3459 39.3635H19.041C18.6291 39.3635 18.2955 39.6971 18.2955 40.1089V60.121C17.5661 60.4167 17.0498 61.1317 17.0498 61.966V62.2722C17.0498 63.3701 17.9431 64.2634 19.041 64.2634H55.6787C56.0906 64.2634 56.4242 63.9298 56.4242 63.518C56.4242 63.1061 56.0905 62.7725 55.6787 62.7725H19.041C18.7652 62.7725 18.5407 62.5481 18.5407 62.2723V61.9661C18.5407 61.6903 18.7652 61.4658 19.041 61.4658H49.1215H58.1997H61.718H62.2718C62.5476 61.4658 62.772 61.6903 62.772 61.9661V62.2723C62.772 62.5481 62.5476 62.7725 62.2718 62.7725H58.3236C57.9118 62.7725 57.5782 63.1062 57.5782 63.518C57.5782 63.9298 57.9119 64.2634 58.3236 64.2634H62.2718C63.3696 64.2634 64.2629 63.3701 64.2629 62.2723V61.9661C64.2632 60.9329 63.4718 60.0814 62.4636 59.9845ZM55.2394 37.2158C56.5769 37.2158 57.7054 38.1283 58.035 39.3634H52.4438C52.7733 38.1282 53.9019 37.2158 55.2394 37.2158ZM45.4051 37.2158C46.7427 37.2158 47.8712 38.1283 48.2008 39.3634H42.6095C42.9392 38.1282 44.0676 37.2158 45.4051 37.2158ZM33.8823 18.5412H37.6533L37.7383 20.3355H33.7971L33.8823 18.5412ZM33.7266 21.8265H37.809L37.871 23.1331H33.6647L33.7266 21.8265ZM23.8258 18.5412H27.5967L27.6819 20.3355H23.7406L23.8258 18.5412ZM23.67 21.8265H27.7525L27.8145 23.1331H23.608L23.67 21.8265ZM23.5374 24.624H27.8851L28.5836 39.3634H22.8387L23.5374 24.624ZM57.4543 59.9748H49.8671V58.6255H57.4543V59.9748ZM57.4543 57.1345H49.8671V55.7852H57.4543V57.1345ZM57.4543 54.2943H49.8671V52.9449H57.4543V54.2943ZM57.4543 51.4539H49.8671V50.1045H57.4543V51.4539Z" fill="#777B80" fill-opacity="0.5"/>
<path d="M58.1996 46.1282H49.1214C48.7096 46.1282 48.376 46.4619 48.376 46.8736C48.376 47.2854 48.7096 47.6191 49.1214 47.6191H58.1996C58.6114 47.6191 58.945 47.2854 58.945 46.8736C58.945 46.4619 58.6113 46.1282 58.1996 46.1282Z" fill="#777B80" fill-opacity="0.5"/>
<path d="M44.9514 48.614H39.8822C39.4703 48.614 39.1367 48.9476 39.1367 49.3595V53.9556C39.1367 54.3674 39.4704 54.701 39.8822 54.701H44.9514C45.3633 54.701 45.6969 54.3674 45.6969 53.9556V49.3595C45.6969 48.9476 45.3631 48.614 44.9514 48.614ZM44.206 53.21H40.6277V50.1049H44.206V53.21Z" fill="#777B80" fill-opacity="0.5"/>
<path d="M44.9514 46.1282H39.8822C39.4703 46.1282 39.1367 46.4619 39.1367 46.8736C39.1367 47.2854 39.4704 47.6191 39.8822 47.6191H44.9514C45.3633 47.6191 45.6969 47.2854 45.6969 46.8736C45.6969 46.4619 45.3631 46.1282 44.9514 46.1282Z" fill="#777B80" fill-opacity="0.5"/>
<path d="M36.3509 48.614H31.2816C30.8698 48.614 30.5361 48.9476 30.5361 49.3595V53.9556C30.5361 54.3674 30.8699 54.701 31.2816 54.701H36.3509C36.7627 54.701 37.0963 54.3674 37.0963 53.9556V49.3595C37.0963 48.9476 36.7626 48.614 36.3509 48.614ZM35.6054 53.21H32.0271V50.1049H35.6054V53.21Z" fill="#777B80" fill-opacity="0.5"/>
<path d="M36.3509 46.1282H31.2816C30.8698 46.1282 30.5361 46.4619 30.5361 46.8736C30.5361 47.2854 30.8699 47.6191 31.2816 47.6191H36.3509C36.7627 47.6191 37.0963 47.2854 37.0963 46.8736C37.0963 46.4619 36.7626 46.1282 36.3509 46.1282Z" fill="#777B80" fill-opacity="0.5"/>
<path d="M27.7492 48.614H22.68C22.2682 48.614 21.9346 48.9476 21.9346 49.3595V53.9556C21.9346 54.3674 22.2683 54.701 22.68 54.701H27.7493C28.1611 54.701 28.4947 54.3674 28.4947 53.9556V49.3595C28.4947 48.9476 28.1609 48.614 27.7492 48.614ZM27.0037 53.21H23.4255V50.1049H27.0037V53.21Z" fill="#777B80" fill-opacity="0.5"/>
<path d="M27.7492 46.1282H22.68C22.2682 46.1282 21.9346 46.4619 21.9346 46.8736C21.9346 47.2854 22.2683 47.6191 22.68 47.6191H27.7493C28.1611 47.6191 28.4947 47.2854 28.4947 46.8736C28.4947 46.4619 28.1609 46.1282 27.7492 46.1282Z" fill="#777B80" fill-opacity="0.5"/>
</svg>
